# xmcd CD database file
#
# Track frame offsets:
#	150
#	19300
#	30720
#	51072
#	72285
#	92120
#	112240
#	148642
#	180195
#	201055
#	219662
#	241062
#	263167
#	282395
#	300825
#
# Disc length: 4405 seconds
#
# Revision: 1
# Processed by: cddbd v1.5.1PL0 Copyright (c) Steve Scherf et al.
# Submitted via: CDex 1.51
#
DISCID=d311330f
DTITLE=寺尾 聰 - CD and DVD THE BEST
DYEAR=2005
DGENRE=Japanese Pop
TTITLE0=HABANA EXPRESS
TTITLE1=飛行少年
TTITLE2=渚のカンパリ・ソーダ
TTITLE3=Long distance Call　長距離電話
TTITLE4=SHADOW CITY
TTITLE5=雨の風景
TTITLE6=二季物語
TTITLE7=砂の迷路
TTITLE8=今夜でピリオド
TTITLE9=まさか・TOKYO
TTITLE10=終着駅
TTITLE11=北ウィング
TTITLE12=ルビーの指環
TTITLE13=出航　SASURAI
TTITLE14=回転扉
EXTD=YEAR: 2005
EXTT0=
EXTT1=
EXTT2=
EXTT3=
EXTT4=
EXTT5=
EXTT6=
EXTT7=
EXTT8=
EXTT9=
EXTT10=
EXTT11=
EXTT12=
EXTT13=
EXTT14=
PLAYORDER=
